<svg width="12" height="12" viewBox="0 0 12 12" fill="none" xmlns="http://www.w3.org/2000/svg">
<path id="Union" fill-rule="evenodd" clip-rule="evenodd" d="M1.35356 0.646446C1.1583 0.451184 0.841716 0.451184 0.646454 0.646446C0.451192 0.841708 0.451192 1.15829 0.646454 1.35355L5.2929 6L0.646454 10.6464C0.451192 10.8417 0.451192 11.1583 0.646454 11.3536C0.841717 11.5488 1.1583 11.5488 1.35356 11.3536L6.00001 6.70711L10.6465 11.3536C10.8417 11.5488 11.1583 11.5488 11.3536 11.3536C11.5488 11.1583 11.5488 10.8417 11.3536 10.6464L6.70711 6L11.3536 1.35355C11.5488 1.15829 11.5488 0.841708 11.3536 0.646446C11.1583 0.451184 10.8417 0.451184 10.6465 0.646446L6.00001 5.29289L1.35356 0.646446Z" fill="white" fill-opacity="0.73"/>
</svg>
